STARTFONT 2.1
FONT -FontForge-Untitled1-Regular-R-Normal--100-960-75-75-P-502-ISO8859-1
SIZE 96 75 75
FONTBOUNDINGBOX 88 128 -14 -50
COMMENT "Generated by fontforge, http://fontforge.sourceforge.net"
COMMENT "Copyright (c) 2020, Chris"
STARTPROPERTIES 31
FOUNDRY "FontForge"
FAMILY_NAME "Untitled1"
WEIGHT_NAME "Regular"
SLANT "R"
SETWIDTH_NAME "Normal"
ADD_STYLE_NAME ""
PIXEL_SIZE 100
POINT_SIZE 960
RESOLUTION_X 75
RESOLUTION_Y 75
SPACING "P"
AVERAGE_WIDTH 502
CHARSET_REGISTRY "ISO8859"
CHARSET_ENCODING "1"
FONTNAME_REGISTRY ""
CHARSET_COLLECTIONS "ISOLatin1Encoding"
FONT_NAME "Untitled1"
FACE_NAME "Untitled1"
COPYRIGHT "Copyright (c) 2020, Chris"
FONT_VERSION "001.000"
FONT_ASCENT 80
FONT_DESCENT 20
UNDERLINE_POSITION -10
UNDERLINE_THICKNESS 5
X_HEIGHT 38
CAP_HEIGHT 53
RAW_ASCENT 800
RAW_DESCENT 200
FIGURE_WIDTH -1
AVG_LOWERCASE_WIDTH 446
AVG_UPPERCASE_WIDTH 557
ENDPROPERTIES
CHARS 52
STARTCHAR A
ENCODING 65
SWIDTH 576 0
DWIDTH 58 0
BBX 53 78 2 0
BITMAP
000003F8000000
00003FFF000000
0000FFFFC00000
0003FFFFE00000
0007FFFFF80000
000FF01FFC0000
001F8003FE0000
003F0000FE0000
007E00007F0000
007C00003F8000
00F800001FC000
00F800000FC000
01F0000007E000
01F0000007E000
03E0000003F000
03E0000001F000
03C0000001F800
03C0000000F800
07C0000000FC00
07800000007C00
07800000007C00
07800000007E00
07800000003E00
0F800000003E00
0F000000003F00
0F000000001F00
0F000000001F00
0F000000001F00
0F000000000F80
0F000000000F80
0F000000000F80
0F000000000F80
0F000000000FC0
1F0000000007C0
1F0000000007C0
1E0000000007C0
1E0000000007C0
1E0000000007E0
1E0000000007E0
1E0000000007E0
1E0000000007E0
1E0000000007E0
1E0000000007E0
1FC000000007F0
1FFFFFF0000FF0
7FFFFFFFFFFFF0
FFFFFFFFFFFFF0
FFFFFFFFFFFFF0
7FF0001FFFFFF0
3F8000000FFBF0
3F8000000003F0
1F0000000003F0
0F0000000003F0
0F0000000001F0
0F0000000001F8
0F0000000001F8
0F8000000001F8
0F8000000001F8
0F8000000001F8
0F8000000001F8
0F8000000001F8
0F8000000001F8
0F8000000001F8
0FC000000001F8
0FC000000001F8
0FC000000001F8
0FC000000003F8
0FC000000003F8
0FE000000003F8
07E000000003F8
07E000000003F0
07E000000007F0
07E000000007F0
03E000000007F0
03E000000007F0
03E000000007E0
01E000000007C0
00E00000000780
ENDCHAR
STARTCHAR B
ENCODING 66
SWIDTH 759 0
DWIDTH 76 0
BBX 72 71 2 0
BITMAP
000001FF0000000000
0000FFFFF800000000
000FFFFFFF00000000
00FFFFFFFFC0000000
07FFFFFFFFF0000000
3FFFFFFFFFFC000000
7FFFFFFFFFFE000000
FFC3FFE001FF000000
FF01FF80007F800000
F800FE00003FC00000
C0007E00000FE00000
00007E00000FE00000
00003F000007E00000
00003F000003F00000
00003F000003F00000
00001F000003F00000
00001F800003F00000
00001F800003E00000
00000F800003E00000
00000F800003E00000
00000FC00007C00000
00000FC0000FC00000
000007C0001F800000
000007C0007F000000
000007C001FF000000
000007E01FFE000000
000007E0FFFC000000
000003E1FFF8000000
000003E1FFF8000000
000003F1FFF8000000
000003F1FFFE000000
000003F0FFFF800000
000003F03FFFE00000
000001F80FFFF80000
000001F803FFFE0000
000001F8007FFF0000
000001F8000FFFC000
000001F80001FFE000
000001FC00003FF000
000001FC00000FFC00
000000FC000003FE00
000000FC000000FF00
000000FC0000007F80
000000FC0000001FC0
000000FE0000000FE0
000000FE00000007F0
0000007E00000003F0
0000007E00000001F8
0000007E00000001FC
0000007E00000000FC
0000007E00000000FE
0000007E000000007E
0000007F000000007E
0000003F000000007F
0000003F000000007F
0000003F000000007F
0000003F000000007F
0000003E000000007F
0000007E000000007F
000001FE000000007F
000003FE00000000FF
000007FF00000001FE
000007FF80000003FE
000003FFE0000007FC
000001FFFE00001FF8
000000FFFFFFFFFFF8
0000003FFFFFFFFFF0
0000000FFFFFFFFFC0
00000003FFFFFFFF00
000000001FFFFFFC00
00000000007FFFC000
ENDCHAR
STARTCHAR C
ENCODING 67
SWIDTH 528 0
DWIDTH 53 0
BBX 48 66 2 0
BITMAP
00000007F000
0000003FF800
000001FFFC00
000003FFFC00
00000FFFFC00
00003FFFFC00
00007FFFFC00
0000FFE07C00
0001FF803C00
0003FE003C00
0007F8007800
000FF0007800
001FC000F000
003F8000E000
007F0000E000
007E00018000
00FC00000000
01F800000000
03F000000000
03E000000000
07C000000000
078000000000
0F8000000000
0F0000000000
1F0000000000
1E0000000000
3E0000000000
3C0000000000
3C0000000000
7C0000000000
780000000000
780000000000
780000000000
F80000000000
F80000000000
F80000000000
F80000000000
F80000000000
F80000000000
F80000000000
F80000000000
F80000000000
F80000000000
F80000000000
F80000000000
FC0000000000
7C0000000000
7C0000000000
7C0000000000
7E0000000000
3E0000000000
3F0000000000
3F0000000000
1F8000000000
1F8000000000
0FC00000003E
0FE000000FFF
07F00001FFFF
07FC003FFFFE
03FFFFFFFFFC
01FFFFFFFFF0
00FFFFFFFF80
007FFFFFF000
003FFFFE0000
000FFFE00000
0003FC000000
ENDCHAR
STARTCHAR D
ENCODING 68
SWIDTH 759 0
DWIDTH 76 0
BBX 71 65 2 -1
BITMAP
0001FFE00000000000
00FFFFFF8000000000
07FFFFFFF000000000
3FFFFFFFFF00000000
7FFFFFFFFFC0000000
FFFFFFFFFFF8000000
FFF8003FFFFE000000
FE00001FFFFF800000
F000001FC3FFE00000
4000000FC07FF80000
0000000FC01FFC0000
0000000FC007FF0000
0000000FC001FF8000
00000007C0007FC000
00000007C0003FE000
00000007C0001FF000
00000007E00007FC00
00000007E00003FE00
00000003E00001FE00
00000003E00000FF00
00000003E000007F80
00000003E000003FC0
00000003F000001FC0
00000001F000000FE0
00000001F0000007F0
00000001F0000007F0
00000001F0000003F8
00000001F0000003F8
00000001F8000001F8
00000001F8000001FC
00000001F8000000FC
00000001F8000000FC
00000001F80000007E
00000000F80000007E
00000000FC0000007E
00000000FC0000007E
00000000FC0000007E
00000000FC0000007E
00000000FC0000007E
00000000FC0000007E
00000000FC0000007E
00000000FC0000007E
00000000FE000000FE
00000000FE000000FC
00000000FE000000FC
00000000FE000001FC
00000000FE000001FC
00000000FE000003F8
00000000FE000007F8
00000000FC00000FF0
000000007C00001FF0
000000007C00003FE0
000000007C00007FE0
000000003C0000FFC0
00000000300003FF80
000000C0000007FF00
000001FC00001FFE00
000001FF8000FFFC00
000001FFF807FFF800
000001FFFFFFFFE000
000000FFFFFFFFC000
0000007FFFFFFF0000
0000001FFFFFFC0000
00000007FFFFE00000
000000003FFC000000
ENDCHAR
STARTCHAR E
ENCODING 69
SWIDTH 537 0
DWIDTH 54 0
BBX 47 63 2 0
BITMAP
1FFFFFFFFF80
3FFFFFFFFFC0
7FFFFFFFFFE0
7FFFFFFFFFF0
7FFFFFFFFFF8
7FFFFFE00078
7E0000000008
7E0000000000
7E0000000000
7E0000000000
7E0000000000
7E0000000000
7E0000000000
7E0000000000
7E0000000000
7E0000000000
7E0000000000
7E0000000000
7E0000000000
7E0000000000
7E0000000000
7E0000000000
7E0000001FE0
7E000007FFE0
7E0000FFFFC0
7E007FFFFF80
FFFFFFFFFF00
FFFFFFFFF800
FFFFFFFF8000
FFFFFF800000
7FFC00000000
7E0000000000
7C0000000000
7C0000000000
7C0000000000
7C0000000000
7C0000000000
7C0000000000
7C0000000000
7C0000000000
FC0000000000
FC0000000000
FC0000000000
FC0000000000
FC0000000000
FC0000000000
FC0000000000
FC0000000000
FC0000000000
FC0000000000
FC0000000000
FC0000000000
FC0000000000
FC0000000000
7C00000007F0
7E00001FFFFC
7FFFFFFFFFFE
3FFFFFFFFFFE
3FFFFFFFFFFC
1FFFFFFFFFF0
07FFFFFFFFC0
01FFFFFFFC00
003FFFFE0000
ENDCHAR
STARTCHAR F
ENCODING 70
SWIDTH 527 0
DWIDTH 53 0
BBX 67 60 -4 1
BITMAP
000003FFFFF0000000
0003FFFFFFFFE00000
007FFFFFFFFFFE0000
07FFFFFFFFFFFFC000
1FFFFFFFFFFFFFF800
7FFFFFFFFFFFFFFC00
FFFFFFFF01FFFFFF00
6000FFE000007FFF80
00007F8000000FFFC0
00003F00000000FFC0
00003F000000001FE0
00003F0000000001E0
00003F000000000000
00003F000000000000
00003F000000000000
00003F000000000000
00003E000000000000
00003E000000000000
00003E000000000000
00003E000000000000
00003F000000000000
00003F000000000000
00003F000000000000
00001F000000000000
00001F000000000000
00001F000000000000
00001F800000000000
00003F800000000000
00003FC00FC0000000
00007FFFFFFF000000
0000FFFFFFFFC00000
007FFFFFFFFFE00000
00FFFFFFFFFFC00000
00FFFFFFFFFF000000
007FFFFFFFF8000000
00001FFFFF00000000
00000FE00000000000
000007E00000000000
000007E00000000000
000007E00000000000
000007E00000000000
000007E00000000000
000003E00000000000
000003E00000000000
000003E00000000000
000003F00000000000
000003F00000000000
000003F00000000000
000003F00000000000
000003F00000000000
000003F00000000000
000003F80000000000
000003F80000000000
000003F80000000000
000003F80000000000
000001F80000000000
000001F80000000000
000001F80000000000
000001FC0000000000
000001FC0000000000
ENDCHAR
STARTCHAR G
ENCODING 71
SWIDTH 585 0
DWIDTH 59 0
BBX 54 61 3 -7
BITMAP
0000000007F800
000000007FFE00
00000003FFFF00
0000001FFFFF80
0000007FFFFFC0
000001FFFFFFC0
000007FFC00FC0
00001FFC0001E0
00003FE0000000
0000FF80000000
0001FE00000000
0007FC00000000
000FF000000000
001FE000000000
003F8000000000
007F0000000000
00FE0000000000
01FC0000000000
03F80000000000
03F00000000000
07E00000000000
0FC00000000000
0FC00000000000
1F8001C0000000
3F0003F800FF00
3F0003FFFFFF80
3E0003FFFFFFC0
7E0001FFFFFFC0
7C0000FFFFFFE0
7C00007FFFFFE0
7C0000000007E0
FC0000000007E0
F80000000003E0
F80000000003E0
F80000000003E0
F80000000003E0
F80000000007E0
780000000007E0
7C0000000007E0
7C0000000007E0
7E000000000FE0
3E000000001FE0
3F000000003FE0
3F800000007FE0
1FC0000001FFE0
0FF0000007FFE0
0FFE00007FFFE0
07FFFFFFFFFFE0
03FFFFFFFFFFE0
01FFFFFFF807E0
007FFFFF8007E0
001FFFF80007E0
0003FF000007E0
000000000007E0
000000000007F0
000000000007F8
000000000007FC
000000000003FC
000000000001FC
000000000001F8
00000000000020
ENDCHAR
STARTCHAR H
ENCODING 72
SWIDTH 537 0
DWIDTH 54 0
BBX 49 69 2 0
BITMAP
00000000001800
00000000003C00
00000000007C00
3800000000F800
3C00000000F800
3C00000000F800
3C00000000F800
3C00000000F800
3C00000000F800
3C00000000F800
3C00000000F800
3C00000000F800
3E00000000F800
3E00000000F800
3E00000000F800
3E00000000F800
3E00000000F800
3E00000000F800
3E00000000F800
3E00000000F800
3F00000000F800
3F00000000F800
1F00000000F800
1F00000000F800
1F00000000F800
1F00000000F800
1F00000000F800
1F00000001F800
1F8000000FF800
1F8000003FF800
1F800000FFF800
1F800003FFF800
1F80000FFFF800
0F80003FFEF800
0F8000FFF8F800
0F8003FFE0F800
0F800FFF80F800
0FC03FFE00FC00
0FC1FFF000FC00
0FCFFFC000FC00
0FFFFF0000FC00
0FFFFC0000FC00
1FFFF00000FC00
3FFFC000007C00
FFFF0000007C00
FFF80000007C00
FFE00000007C00
1FE00000007C00
0FE00000007C00
07E00000007C00
07E00000007C00
07E00000007E00
03E00000007E00
03E00000007E00
03E00000007E00
03E00000007E00
03F00000007E00
03F00000007E00
03F00000007E00
03F00000007E00
03F00000003F00
03F00000003F00
01F00000003F00
01F00000003F00
01F00000003F00
01F00000001F80
01F00000001F80
00E00000001F80
00000000000F00
ENDCHAR
STARTCHAR I
ENCODING 73
SWIDTH 172 0
DWIDTH 17 0
BBX 14 57 1 0
BITMAP
6000
F000
7000
7800
7800
7C00
7C00
7E00
7E00
3E00
3E00
3F00
3F00
1F00
1F00
1F80
1F80
0F80
0F80
0FC0
07C0
07C0
07C0
07C0
07E0
07E0
03E0
03E0
03E0
03E0
03F0
03F0
03F0
03F0
03F0
01F0
01F8
01F8
01F8
01F8
01F8
01F8
01F8
01F8
00FC
00FC
00FC
00FC
00FC
00FC
00FC
00FC
00FC
007C
007C
003C
001C
ENDCHAR
STARTCHAR J
ENCODING 74
SWIDTH 450 0
DWIDTH 45 0
BBX 41 72 2 0
BITMAP
000000018000
00000001C000
00000003C000
00000003E000
00000003E000
00000003F000
00000001F000
00000001F000
00000001F000
00000001F800
00000001F800
00000001F800
00000001F800
00000000F800
00000000FC00
00000000FC00
00000000FC00
00000000FC00
00000000FC00
00000000FC00
000000007E00
000000007E00
000000007E00
000000007E00
000000007E00
000000007E00
000000007E00
000000003F00
000000003F00
000000003F00
000000003F00
000000003F00
000000003F00
000000003F00
000000001F00
000000001F00
3C0000001F80
780000001F80
780000001F80
F80000001F80
F80000001F80
F80000001F80
FC0000001F80
FC0000001F80
7C0000001F80
7E0000001F80
3E0000001F80
3F0000001F80
1F0000001F80
0F8000001F80
07C000001F80
07C000001F80
03E000001F80
01F000001F80
00F800001F80
007C00001F80
007E00001F80
003F00001F80
001F80001F00
000FC0001F00
0007E0003F00
0003F0003F00
0001FC003F00
0000FE003E00
00007F807E00
00003FE07E00
00001FFFFC00
000007FFFC00
000003FFF800
000000FFF000
0000003FE000
0000000F8000
ENDCHAR
STARTCHAR K
ENCODING 75
SWIDTH 480 0
DWIDTH 48 0
BBX 43 60 2 0
BITMAP
600000078000
F000001F8000
F000003F0000
F00000FF0000
F80001FE0000
F80003FC0000
F80007F80000
F8000FF00000
F8001FE00000
F8003FC00000
FC007F800000
7C007F800000
7C00FF000000
7C01FE000000
7C03FC000000
7C07F8000000
7C07F0000000
7C0FE0000000
3C1FC0000000
3C3F80000000
3E3F00000000
3E7E00000000
3EFC00000000
3FFC00000000
3FF800000000
3FF000000000
1FE000000000
1FC000000000
1FC000000000
1FC000000000
1FE000000000
1FE000000000
1FF000000000
1FF800000000
1FFC00000000
1FFE00000000
1FFF00000000
1F7F80000000
1F3FC0000000
1F1FE0000000
1F0FF8000000
1F07FC000000
1F03FE000000
1F01FF000000
1F007FC00000
1F803FE00000
1F801FF80000
1F8007FC0000
1F8003FF0000
1F8000FF8000
1F80007FE000
1F80001FF000
0FC0000FFC00
0FC00003FF00
0FC00001FF80
0FC000007FC0
07C000003FE0
07C000000FE0
0780000007E0
0380000001E0
ENDCHAR
STARTCHAR L
ENCODING 76
SWIDTH 355 0
DWIDTH 36 0
BBX 32 55 2 0
BITMAP
06000000
0F000000
0F000000
0F800000
1F800000
1F800000
1F800000
1F800000
1F800000
3F800000
3F000000
3F000000
3F000000
3F000000
3F000000
3F000000
3F000000
7F000000
7E000000
7E000000
7E000000
7E000000
7E000000
7E000000
7E000000
7E000000
7C000000
7C000000
FC000000
FC000000
FC000000
FC000000
FC000000
FC000000
FC000000
FC000000
FC000000
FC000000
FC000000
FC000000
FC000000
FC000000
FC000000
FC000000
FE000000
7E000000
7F000000
3FF00000
3FFFFE00
1FFFFFFE
0FFFFFFF
07FFFFFF
03FFFFFF
007FFFFE
000FFFFC
ENDCHAR
STARTCHAR M
ENCODING 77
SWIDTH 547 0
DWIDTH 55 0
BBX 50 63 2 0
BITMAP
F0000000003800
FC000000007800
FE00000000FC00
FF00000000FC00
FF80000001FC00
7F80000001FC00
7FC0000001FC00
3FC0000003FC00
3FE0000003FC00
1FE0000007FC00
1FF0000007FC00
0FF0000007FC00
0FF800000FFC00
07F800001FFC00
07FC00001FF800
07FE00003FF800
07FF00007FF800
07FF8000FFF800
07FFC001FFF800
07FFF00FFFF800
07CFFFFFFFF800
07C7FFFFFFF800
07C3FFFFFFF800
07C1FFFFF3F800
07C0FFFF81F800
0FC03FFE01F800
0FC0030000F800
0FC0000000F800
0FC0000000F800
0FC0000000FC00
0FC0000000FC00
0FC0000000FC00
0FC0000000FC00
0FC0000000FC00
0FC0000000FC00
0FC0000000FC00
0FC00000007E00
0FC00000007E00
0FC00000007E00
0FC00000007E00
0FC00000007E00
0FC00000007E00
0FC00000007F00
0FC00000007F00
0FC00000007F00
0FC00000007F00
0FC00000003F00
0FC00000003F00
0FC00000003F80
0FC00000003F80
0FC00000003F80
0FC00000003F80
0FC00000003F80
0FC00000003F80
0FC00000003F80
0FC00000001FC0
0FC00000001FC0
0FC00000001FC0
0FC00000001FC0
07800000001FC0
00000000001FC0
00000000001FC0
00000000000F80
ENDCHAR
STARTCHAR N
ENCODING 78
SWIDTH 624 0
DWIDTH 62 0
BBX 57 55 3 0
BITMAP
0C00000000000000
7C00000000000000
7C00000000000000
7C00000000000000
7E00000000380000
7E000000007C0000
7E000000007E0000
3E000000007F0000
3F000000007F0000
3F000000007F8000
3F000000007FC000
3F800000003FC000
3F800000003FE000
3F800000001FE000
3FC00000001FE000
3FC00000000FF000
3FC00000000FF000
3FE000000007F800
3FE000000007F800
3FE000000003F800
3FF000000003FC00
3FF000000001FC00
3FF000000001FC00
7FF800000000FE00
7FF800000000FE00
7FFC000000007E00
7FFC000000007E00
7FFE000000003F00
7FFE000000003F00
7E7F000000003F00
7C3F000000001F00
7C1F800000001F00
7C1F800000001F80
7C0FC00000001F80
7C07E00000001F80
FC07E00000001F80
FC03F00000001F80
FC03F80000001F00
FC01FC0000003F00
FC00FC0000003F00
FC00FE0000003F00
FC007F0000007F00
FC003FC000007E00
FC001FE00000FE00
FE001FF00001FC00
FE000FFC0003FC00
FE0007FF000FF800
FE0003FFFFFFF000
FE0001FFFFFFE000
FE0000FFFFFFC000
FE00003FFFFF8000
FC00000FFFFE0000
7C000003FFF80000
7C0000007FC00000
3800000000000000
ENDCHAR
STARTCHAR O
ENCODING 79
SWIDTH 624 0
DWIDTH 62 0
BBX 58 50 2 0
BITMAP
0000FC0000000000
000FFFC000000000
003FFFFC00000000
00FFFFFF00000000
01FFFFFFE0000000
03FFFFFFF8000000
07FC03FFFE000000
0FF0003FFF800000
0FE00007FFC00000
1F800000FFF00000
3F0000003FF80000
3F0000000FFC0000
7E00000003FE0000
7C00000001FF0000
7C000000007F8000
FC000000003FC000
F8000000001FE000
F8000000000FF000
F80000000007F800
F80000000003F800
F80000000001FC00
F80000000000FC00
F80000000000FE00
F800000000007E00
F800000000007F00
F800000000003F00
F800000000003F00
F800000000001F80
7C00000000001F80
7C00000000001F80
7E00000000001F80
7E00000000000F80
3F00000000000FC0
3F80000000000FC0
3F80000000001F80
1FC0000000001F80
1FE0000000003F80
0FF0000000003F00
07FC00000000FF00
07FE00000001FE00
03FF00000007FC00
01FFC000001FFC00
00FFF000007FF000
007FFE0007FFE000
001FFFC3FFFFC000
000FFFFFFFFF0000
0003FFFFFFFC0000
0000FFFFFFE00000
00003FFFFC000000
000001FF00000000
ENDCHAR
STARTCHAR P
ENCODING 80
SWIDTH 643 0
DWIDTH 64 0
BBX 61 61 2 0
BITMAP
0007FFC000000000
00FFFFFF00000000
07FFFFFFF8000000
1FFFFFFFFF000000
7FFFFFFFFFE00000
FFFFFFFFFFFC0000
FF00000FFFFF0000
FC0000007FFFC000
FC00000007FFF000
F800000000FFF800
F8000000001FFC00
F00000000007FE00
E00000E00001FF00
600001E000007F80
000001E000003FC0
000001E000001FE0
000001E000000FE0
000001E0000007F0
000001E0000003F0
000001F0000003F0
000001F0000001F0
000001F0000001F0
000001F0000001F0
000001F0000001F8
000001F0000001F8
000001F0000003F8
000001F0000003F0
000001F0000007F0
000001F0000007F0
000001F000000FE0
000001F800001FE0
000001F800007FC0
000001F80000FF80
000001F80007FF00
000001FC003FFE00
000001FFFFFFF800
000000FFFFFFF000
000000FFFFFFC000
000000FFFFFF0000
000000FFFFFC0000
000000FFFFE00000
000000FFFE000000
000000FE00000000
000000FE00000000
0000007E00000000
0000007E00000000
0000007E00000000
0000007E00000000
0000007E00000000
0000007E00000000
0000007E00000000
0000003E00000000
0000003F00000000
0000003F00000000
0000003F00000000
0000001F00000000
0000001F00000000
0000001F00000000
0000000F00000000
0000000E00000000
0000000E00000000
ENDCHAR
STARTCHAR Q
ENCODING 81
SWIDTH 658 0
DWIDTH 66 0
BBX 64 67 3 -12
BITMAP
00003FE000000000
0001FFFC00000000
0007FFFF00000000
001FFFFFC0000000
003FFFFFF0000000
007FFFFFFC000000
00FF807FFE000000
01FC0007FF800000
03F00001FFC00000
07E00000FFE00000
0FC000007FF00000
0F8000007FFC0000
1F8000007FFE0000
1F0000003FFF0000
3E0000003E7F8000
3E0000003E3FC000
7E0000003C1FE000
7C0000007C0FF000
7C0000007C07F000
FC0000007C03F800
FC000000F801FC00
FC0000003800FE00
F800000000007E00
F800000000007F00
F800000000003F80
F800000000001F80
F800000000000FC0
F800000000000FC0
F8000000000007E0
F8000000000007E0
F8000000000003F0
F8000004000003F0
F800000F000001F0
FC00000F800001F0
7C00000F800001F0
7C00000FC00001F0
7E000007E00001F0
3E000007F00001F0
3F000003F80001F0
3F800003F80003E0
1F800001FC0007E0
0FC00000FE000FC0
0FE00000FE003FC0
07F000007F007F80
03FC00007F81FF00
01FF00007FFFFE00
01FFC0007FFFFC00
00FFF000FFFFF800
003FFFDFFFFFF000
001FFFFFFFFFC000
000FFFFFFFFF8000
0003FFFFFFFF8000
0000FFFFFFFFC000
00003FFFFFFFC000
000003FFE01FC000
000000000007E000
000000000003F000
000000000000FC00
0000000000007E00
0000000000003F80
0000000000001FE0
0000000000000FF8
00000000000007FC
00000000000003FE
00000000000001FF
00000000000000FE
0000000000000038
ENDCHAR
STARTCHAR R
ENCODING 82
SWIDTH 593 0
DWIDTH 59 0
BBX 58 69 -1 -5
BITMAP
0000FFFF80000000
003FFFFFFC000000
03FFFFFFFF800000
0FFFFFFFFFE00000
1FFFFFFFFFF80000
3FFFFFFFFFFE0000
7FE000007FFF0000
7F00000007FFC000
FE00000000FFE000
FC000000003FF000
F8000000001FF000
F80000000007F800
F00000000003F800
700000000001FC00
700300000000FC00
3003800000007C00
0003C00000007E00
0007C00000007E00
0007C00000007E00
0007C0000000FE00
0007C0000001FE00
0007C0000003FC00
0007E000000FFC00
0007E000003FF800
0003E00001FFF000
0003E0001FFFE000
0003F001FFFFC000
0003F07FFFFF0000
0003FFFFFFFC0000
0003FFFFFFF00000
0003FFFFFF800000
0003FFFFF8000000
0003FFFF80000000
0001FFF000000000
0001FF0000000000
0001FE0000000000
0001FE0000000000
0001FF0000000000
0001FF8000000000
0000FFC000000000
0000FFC000000000
0000FFE000000000
0000FFF000000000
0000FBF800000000
000079FC00000000
000078FE00000000
00007C7F00000000
00007C3F80000000
00007C1FC0000000
00003C0FE0000000
00003E07F0000000
00003E03F8000000
00003E01FC000000
00001E00FF000000
00001E003F800000
00001F001FC00000
00001F000FF00000
00000F0007F80000
00000F0003FC0000
00000F0001FF0000
0000070000FFC000
00000700003FE000
00000700001FF800
00000000000FFE00
000000000003FF00
000000000001FF80
0000000000007FC0
0000000000001F80
0000000000000200
ENDCHAR
STARTCHAR S
ENCODING 83
SWIDTH 643 0
DWIDTH 64 0
BBX 60 63 2 -1
BITMAP
0000003FF8000000
000007FFFFC00000
00001FFFFFF80000
00007FFFFFFF0000
0000FFFFFFFF8000
0003FF8001FFE000
0007F800007FF000
0007E000001FF800
000FC000000FF800
000F80000003F800
000F80000000FC00
001F000000003800
001F000000000000
001F000000000000
001F000000000000
000F800000000000
000F800000000000
000FC00000000000
0007E00000000000
0007F00000000000
0003F80000000000
0001FC0000000000
0001FF0000000000
0000FFC000000000
00003FE000000000
00001FF800000000
000007FE00000000
000001FFC0000000
0000007FF0000000
0000003FFC000000
0000000FFF000000
00000003FFC00000
00000000FFF00000
000000003FFC0000
000000001FFF0000
0000000007FF8000
0000000001FFE000
00000000007FF000
18000000001FF800
38000000000FFE00
780000000003FF00
7C0000000000FF00
FC00000000003F80
FC00000000001FC0
FC00000000000FE0
FC000000000007E0
7E000000000007E0
7E000000000007E0
3F000000000007F0
3F800000000007F0
1FC00000000007F0
0FE00000000007E0
07F00000000007E0
03F8000000000FE0
01FE000000001FC0
00FFC00000007FC0
003FFE000001FF80
000FFFFFCFFFFF00
0003FFFFFFFFFE00
0000FFFFFFFFF800
00001FFFFFFFE000
000003FFFFFF8000
0000001FFFF80000
ENDCHAR
STARTCHAR T
ENCODING 84
SWIDTH 595 0
DWIDTH 60 0
BBX 68 63 0 0
BITMAP
FFFFFFE00000000000
FFFFFFFFFFF0000000
7FFFFFFFFFFFF80000
7FFFFFFFFFFFFFE000
07FFFFFFFFFFFFFE00
003FFFFFFFFFFFFF80
0001FFFFFFFFFFFFE0
0000007FF8003FFFF0
00000000F80003FFF0
00000000F800003FF0
00000000F8000007F0
00000000F800000000
00000000F800000000
00000000F800000000
00000000F800000000
00000000F800000000
00000000F800000000
00000000F800000000
00000000FC00000000
00000000FC00000000
00000000FC00000000
000000007C00000000
000000007C00000000
000000007C00000000
000000007C00000000
000000007C00000000
000000007C00000000
000000007E00000000
000000007E00000000
000000007E00000000
000000007E00000000
000000007E00000000
000000007E00000000
000000003E00000000
000000003F00000000
000000003F00000000
000000003F00000000
000000003F00000000
000000003F00000000
000000003F00000000
000000003F00000000
000000001F80000000
000000001F80000000
000000001F80000000
000000001F80000000
000000001F80000000
000000001F80000000
000000001FC0000000
000000001FC0000000
000000000FC0000000
000000000FC0000000
000000000FC0000000
000000000FE0000000
000000000FE0000000
000000000FF0000000
000000000FF0000000
000000000FF8000000
0000000007F8000000
0000000007FC000000
0000000007FC000000
0000000003FC000000
0000000001FC000000
0000000000F8000000
ENDCHAR
STARTCHAR U
ENCODING 85
SWIDTH 585 0
DWIDTH 59 0
BBX 54 56 3 0
BITMAP
07000000000000
1F80000000C000
3F80000000E000
3F80000001E000
7F00000001F000
7E00000001F000
7C00000001F000
F800000003F000
F800000003F800
F800000003F800
F800000003F800
F800000003F800
F800000003F800
F800000003F800
F800000003F800
F800000003F800
F800000001F800
F800000001F800
F800000001F800
F800000001F800
F800000001F800
F800000000F800
F800000000F800
F800000000FC00
F800000000FC00
F8000000007C00
F8000000007C00
78000000007E00
7C000000007E00
7C000000003E00
7C000000003F00
7C000000003F00
3E000000003F00
3E000000003F80
3E000000003F80
3E000000003F80
3F000000003FC0
1F000000007FC0
1F800000007FC0
1F80000000FFE0
0FC0000001FFE0
0FC0000003FFF0
0FE0000007FFF0
07E000000FFFF0
07F000001FFFF8
03F800007FCFF8
03FC0001FF03F8
01FF0007FE03FC
00FFC03FF801FC
00FFFFFFF001FC
007FFFFFC000FC
003FFFFF80007C
001FFFFE000038
0007FFF8000000
0003FFE0000000
00007F80000000
ENDCHAR
STARTCHAR V
ENCODING 86
SWIDTH 432 0
DWIDTH 43 0
BBX 39 53 2 0
BITMAP
F000000018
F80000003C
FC0000003C
FE0000007C
FE0000007C
7F0000007E
7F0000007E
7F800000FC
3F800000FC
3FC00000FC
3FC00000FC
1FC00001FC
1FE00001FC
0FE00001FC
0FF00001FC
0FF00003FC
07F00003F8
07F80003F8
03F80003F8
03FC0003F8
01FC0007F8
01FE0007F0
01FE0007F0
00FF0007F0
00FF0007F0
007F0007E0
007F800FE0
003F800FE0
003FC00FE0
003FC00FC0
001FE00FC0
001FE01FC0
000FF01FC0
000FF01F80
0007F01F80
0007F81F80
0003F83F00
0003FC3F00
0001FC3F00
0001FE7E00
0000FE7E00
0000FF7E00
00007FFC00
00007FFC00
00003FF800
00003FF800
00001FF000
00001FF000
00000FE000
00000FE000
000007C000
0000078000
0000030000
ENDCHAR
STARTCHAR W
ENCODING 87
SWIDTH 720 0
DWIDTH 72 0
BBX 69 51 1 0
BITMAP
380000000000000000
380000000000000000
78000000000000F000
78000000000000F800
F8000000000000FC00
F8000000000000FC00
FC000000000000FE00
FC000000000000FE00
FC000000000000FF00
FC000000000000FF00
FC0000000000007F00
FC0000000000007F80
FC0000000000007F80
FC0000000000003F80
FC0000000000003FC0
FC0000000000003FC0
FC0000000000001FC0
FC0000000000001FE0
FC0000000000000FE0
FE0000060000000FE0
FE00000F0000000FE0
7E00000F00000007F0
7E00000F80000007F0
7E00000F80000003F0
7E00000F80000003F0
7E00000F80000003F0
7E00000FC0000001F8
7E00000FC0000001F8
7F00000FC0000001F8
3F00000FE0000001F8
3F00000FE0000001F8
3F00000FE0000001F8
3F00000FF0000001F8
1F80001FF0000001F8
1F80001FF8000001F8
1F80003FF8000001F8
1F80007FFC000001F0
0FC0007FFE000003F0
0FC000FFFE000007F0
0FE001FEFF000007E0
07E003FC3F80000FE0
07F007F81FC0003FC0
03F81FF00FF0007F80
01FFFFE007FC01FF80
01FFFFC003FFFFFF00
00FFFF0001FFFFFE00
007FFE0000FFFFFC00
003FFC00007FFFF000
001FF800001FFFE000
0003E000000FFF8000
000000000003FC0000
ENDCHAR
STARTCHAR X
ENCODING 88
SWIDTH 547 0
DWIDTH 55 0
BBX 52 60 2 -6
BITMAP
01800000000000
01C00000000000
01E00000000000
01E00000000000
01F000000007E0
01F80000001FF0
01F80000007FE0
00FC000000FF80
00FE000001FF00
007E000003FC00
003F000007F800
003F00000FE000
001F80001FC000
000F80003F8000
000FC0007F0000
0007E000FC0000
0003E003F80000
0003F007F00000
0001F80FE00000
0000F81FC00000
0000FC7F800000
00007FFF000000
00007FFC000000
00003FF8000000
00003FF8000000
00003FF0000000
00003FE0000000
00007FC0000000
0000FFC0000000
0000FFE0000000
0001FFE0000000
0003FFF0000000
0007FFF8000000
000FF3F8000000
000FE1FC000000
001FC1FE000000
003F80FE000000
007F007F000000
007E003F800000
00FC001FC00000
01FC000FC00000
03F8000FE00000
03F00007F00000
07F00003F80000
07E00001FC0000
0FC00001FC0000
1FC00000FE0000
1F8000007F0000
3F8000003F8000
3F0000001F8000
7E0000000FC000
7E00000007C000
7E00000003E000
FC00000001E000
FC000000000000
F8000000000000
F8000000000000
F0000000000000
F0000000000000
E0000000000000
ENDCHAR
STARTCHAR Y
ENCODING 89
SWIDTH 413 0
DWIDTH 41 0
BBX 37 67 2 -1
BITMAP
E000000000
F000000000
F000000000
F000000000
F800000078
F8000000F8
FC000000F8
FC000000F8
7E000000F8
7F000000F8
7F000000F8
3F800000F8
3FC00001F8
1FE00001F8
0FF00003F0
0FF00003F0
07F80007F0
03FC0007F0
01FE000FE0
00FF800FE0
007FC00FE0
003FF01FC0
001FFC1FC0
0007FFFFC0
0003FFFF80
0000FFFF80
00007FFF80
00001FFF00
000007FF00
000001FE00
000000FE00
000000FE00
000000FC00
000001FC00
000001F800
000001F800
000001F000
000003F000
000003F000
000003E000
000007E000
000007E000
000007C000
00000FC000
00000FC000
00000F8000
00000F8000
00001F8000
00001F8000
00001F0000
00001F0000
00001F0000
00001F0000
00003F0000
00003F0000
00003F0000
00003F0000
00003E0000
00003E0000
00003E0000
00003E0000
00003F0000
00003F0000
00003F0000
00003F0000
00003F0000
00001E0000
ENDCHAR
STARTCHAR Z
ENCODING 90
SWIDTH 585 0
DWIDTH 59 0
BBX 55 63 2 0
BITMAP
01FFFC00000000
0FFFFFC0000000
3FFFFFF8000000
7FFFFFFE000000
FFFFFFFF800000
FFE003FFC00000
FF00003FE00000
FC00000FF00000
C0000003F80000
00000001F80000
00000000FC0000
000000007C0000
000000007C0000
000000003E0000
000000003E0000
000000003E0000
000000003E0000
000000003E0000
000000003E0000
000000003E0000
000000003E0000
000000003E0000
000000007C0000
000000007C0000
000000007C0000
00000000FC0000
00000001F80000
00000003FC0000
0000000FFF8000
0000007FFFFF80
00001FFFFFFFE0
0007FFFFFFFFE0
001FFFFFFFFFC0
003FFFFFFFFF00
007FFFFFFC1C00
007FFFFFE00000
007E00FFC00000
0000007F800000
0000007F000000
0000007E000000
000000FC000000
000000F8000000
000001F0000000
000001F0000000
000003E0000000
000007C0000000
00000FC0000000
00001F80000000
00003F80000000
00003F00000000
00007F00000000
0000FE00000000
0000FE0000007C
0001FC00000FFE
0001FC0000FFFE
0001FC000FFFFE
0001FC01FFFFFE
0001FFFFFFFFFC
0000FFFFFFFFE0
0000FFFFFFFF00
00007FFFFFF800
00007FFFFF8000
00001FFFE00000
ENDCHAR
STARTCHAR a
ENCODING 97
SWIDTH 518 0
DWIDTH 52 0
BBX 47 51 2 0
BITMAP
00007E000000
0001FFC00000
0003FFF00000
0007FFFC0000
0007FFFE0000
0007FFFF8000
000F81FFC000
0007003FE000
0000001FF000
00000007F800
00000003F800
00000001FC00
00000000FE00
000000007F00
000000007F00
000000003F80
000000003F80
000000001FC0
000000001FC0
000000001FE0
0007FFF01FE0
003FFFFF0FF0
00FFFFFFEFF0
03FFFFFFFFF0
07FFFFFFFFF8
0FFF800FFFF8
1FFC0001FFF8
3FE000007FF8
3F8000003FFC
7F0000001FFC
7E0000000FFC
FC00000003FC
F800000003FC
F800000001FC
F800000000FC
F8000000007C
F8000000007E
F8000000003C
FC000000003C
7E000000001C
7F0000000000
3F8000000000
3FF0000003FC
1FFE0003FFFE
0FFFFFFFFFFE
07FFFFFFFFFC
01FFFFFFFFF0
00FFFFFFFF80
001FFFFFFC00
0003FFFFE000
00001FFC0000
ENDCHAR
STARTCHAR b
ENCODING 98
SWIDTH 509 0
DWIDTH 51 0
BBX 48 65 1 0
BITMAP
1C0000000000
7C0000000000
7C0000000000
FC0000000000
FC0000000000
FC0000000000
FE0000000000
FE0000000000
FE0000000000
7E0000000000
7E0000000000
7E0000000000
7E0000000000
7E0000000000
3E0000000000
3F0000000000
3F0000000000
3F0000000000
3F0000000000
3F0000000000
3F0000000000
1F0000000000
1F0000000000
1F0000000000
1F8000000000
1F8000000000
1F8000000000
0F8000000000
0F8000000000
0FC000000000
0FC0F8000000
0FFFFFE00000
07FFFFFE0000
07FFFFFF8000
07FFFFFFF000
07FFFFFFFC00
07FE01FFFE00
07FC001FFF80
07F80003FFC0
07F000007FE0
07F000001FF0
07F000000FF8
07F0000003F8
07E0000001FC
03E0000000FE
03E0000000FE
03E00000007E
03E00000003F
03E00000003F
03F00000003F
03F00000003F
01F00000003F
01F80000003F
01FC0000007F
01FE000000FF
00FF000001FE
00FF800003FE
007FE0000FFE
007FFC003FFC
003FFFFFFFF8
001FFFFFFFF0
000FFFFFFFE0
0003FFFFFF80
0000FFFFFC00
00001FFF8000
ENDCHAR
STARTCHAR c
ENCODING 99
SWIDTH 460 0
DWIDTH 46 0
BBX 41 45 2 0
BITMAP
00007FC00000
0003FFF80000
000FFFFE0000
003FFFFF0000
007FFFFF8000
00FF803FC000
01FC000FC000
03F80007C000
07F00003E000
0FE00003C000
0FC00001C000
1F800001C000
3F000001C000
3F0000008000
7E0000008000
7E0000000000
7E0000000000
7C0000000000
FC0000000000
FC0000000000
FC0000000000
FC0000000000
FC0000000000
FC0000000000
FC0000000000
FC0000000000
FC0000000000
FC0000000000
FC0000000000
7E0000000000
7E0000000000
7F0000000000
3F0000000000
3F8000000000
1FC000000000
1FE000000000
0FF800000000
07FF00000000
07FFE0000000
01FFFFFFFF00
00FFFFFFFF80
007FFFFFFF80
001FFFFFFF00
0003FFFFFC00
00003FFFC000
ENDCHAR
STARTCHAR d
ENCODING 100
SWIDTH 537 0
DWIDTH 54 0
BBX 49 75 2 0
BITMAP
00000000600000
00000000F00000
00000000F80000
00000001F80000
00000001FC0000
00000001FE0000
00000000FE0000
00000000FE0000
00000000FF0000
00000000FF0000
00000000FF8000
000000007F8000
000000007F8000
000000007FC000
000000007FC000
000000003FC000
000000003FE000
000000003FE000
000000001FE000
000000001FE000
000000001FE000
000000001FF000
000000000FF000
000000000FF000
000000000FF000
000000000FF000
0000000007F800
0000000007F800
0000000007F800
0007F80007F800
003FFF0007F800
007FFFC003F800
01FFFFF003F800
03FFFFFC03FC00
03FFFFFE03FC00
07FFFFFF83FC00
0FFFFFFFE3FC00
0FFE00FFF3FC00
1FF8001FFFFC00
1FF00007FFFC00
3FE00003FFFC00
3FC00000FFFC00
7F8000007FFC00
7F8000003FFE00
7F0000001FFE00
7F00000007FE00
FE00000007FE00
FE00000007FE00
FE00000007FE00
FC00000007FE00
FC00000007FE00
FC00000007FE00
FC00000007FE00
FC0000000FFE00
FC0000000FFE00
FC0000001FFE00
FE0000001FFF00
FE0000003FFF00
7E0000007FFF00
7F000000FFFF00
7F000001FFFF00
7F000003FEFF00
3F800007FC7F00
3F80000FF87F00
1FC0001FF03F00
1FC0007FE03F00
0FE001FFC03F80
0FF807FF801F80
07FFFFFF001F80
03FFFFFE000F80
01FFFFF8000F00
01FFFFE0000000
007FFF80000000
003FFE00000000
000FF000000000
ENDCHAR
STARTCHAR e
ENCODING 101
SWIDTH 528 0
DWIDTH 53 0
BBX 48 53 2 0
BITMAP
00003F800000
0001FFF00000
000FFFFC0000
001FFFFE0000
007FFFFF0000
00FFC0FF8000
01FE003FC000
03FC001FC000
07F0000FE000
07E00007E000
0FC00007E000
1F800003E000
1F800003E000
3F000003F000
3F000001F000
3E000001F000
7E000003F000
7C000003E000
7C000007E000
7C00000FE000
FC00001FC000
FC00003FC000
FC0000FF8000
FC0003FF0000
FC000FFE0000
FC003FFC0000
FCFFFFF80000
FDFFFFE00000
FCFFFF800000
FCFFFE000000
FC7FE0000000
FC0000000000
7C0000000000
7C0000000000
7E0000000000
7E0000000000
3F0000000000
3F0000000000
1F8000000000
1F8000000000
0FC000000000
0FE000000000
07F800000000
03FE00000000
01FF80000000
00FFF800000F
007FFFE0FFFE
003FFFFFFFFC
000FFFFFFFF0
0003FFFFFFE0
0000FFFFFF00
00003FFFF800
000003FFC000
ENDCHAR
STARTCHAR f
ENCODING 102
SWIDTH 386 0
DWIDTH 39 0
BBX 48 72 -1 0
BITMAP
0000007F8000
000003FFF000
000007FFFC00
00001FFFFE00
00003FFFFF80
00007FFFFFC0
00007FC03FE0
0000FF001FF0
0001FC0007F8
0001F80003FC
0003F00001FC
0003E00000FE
0007C000007E
0007C000003E
00078000001F
000F80000000
000F80000000
000F00000000
000F00000000
001F00000000
001F00000000
001F00000000
001F00000000
001F00000000
001F00000000
001F00000000
001F00000000
001F00000000
003F00000000
003F00000000
003F00000000
003F80000000
003F80000000
001F80000000
001F80000000
001F80000000
001F80000000
001F80000000
001FC0000000
007FFFC00000
1FFFFFFFF000
7FFFFFFFF800
FFFFFFFFF800
FFFFFFFFF800
FFCFFFFFF000
F807F9FFC000
0007F8000000
0003F8000000
0003F8000000
0001F8000000
0001FC000000
0000FC000000
0000FE000000
00007E000000
00007F000000
00003F000000
00003F800000
00003FC00000
00001FC00000
00001FE00000
00000FF00000
00000FF00000
000007F80000
000007FC0000
000003FC0000
000003FE0000
000001FE0000
000000FF0000
000000FF0000
0000007F0000
0000003F0000
0000000E0000
ENDCHAR
STARTCHAR g
ENCODING 103
SWIDTH 375 0
DWIDTH 38 0
BBX 51 92 -14 -50
BITMAP
000000003F0000
00000001FFC000
00000007FFE000
0000000FFFF000
0000001FFFF000
0000007FFFF800
000000FF81F800
000001FE00FC00
000001F8007C00
000003F0007E00
000007E0003E00
00000FC0003E00
00000FC0003F00
00001F80003F00
00001F00003F00
00003F00003F00
00003E00003F80
00007E00003F80
00007E00003F80
00007C00003F80
0000FC00003F80
0000FC00003F80
0000FC00003F80
0000FC00003FC0
0000FC00003FC0
0000FC00007FC0
0000FC00007FC0
0000FC00007FC0
0000FC0000FFC0
0000FE0001FFC0
00007F0003FFC0
00007F8007FFC0
00003FC01FFFC0
00003FFFFFFFC0
00001FFFFFFFC0
00000FFFFFFFC0
000007FFFF3FC0
000003FFFC3FC0
000000FFE01FC0
0000001F801FC0
00000000001FC0
00000000001FE0
00000000000FE0
00000000000FE0
00000000000FE0
00000000000FE0
00000000000FE0
00000000000FE0
000000000007E0
000000000007E0
000000000007E0
000000000007E0
000000000007E0
000000000007E0
000000000007E0
000000000007E0
000000000007E0
000000000003E0
000000000003E0
000000000003E0
000000000003E0
000000000003E0
000000000003E0
000000000003E0
000000000003E0
3C0000000003E0
7C0000000003E0
7C0000000003E0
FC0000000007E0
F80000000007E0
780000000007E0
7C0000000007E0
7C0000000007E0
7E0000000007C0
7F000000000FC0
3F800000000FC0
3FC00000000FC0
1FE00000000FC0
0FF80000001F80
07FE0000001F80
03FF8000003F80
01FFF000003F00
00FFFC00007F00
003FFFC000FF00
001FFFF803FE00
0007FFFFFFFE00
0001FFFFFFFC00
00007FFFFFF800
00000FFFFFF000
000003FFFFE000
0000003FFFC000
00000001FF0000
ENDCHAR
STARTCHAR h
ENCODING 104
SWIDTH 438 0
DWIDTH 44 0
BBX 41 72 -1 0
BITMAP
300000000000
F00000000000
F80000000000
F80000000000
F80000000000
FC0000000000
FC0000000000
FC0000000000
7E0000000000
7E0000000000
7E0000000000
7F0000000000
3F0000000000
3F0000000000
3F8000000000
3F8000000000
1F8000000000
1F8000000000
1F8000000000
1FC000000000
0FC000000000
0FC000000000
0FC000000000
0FC000000000
0FC000000000
07C000000000
07C07FC00000
07C3FFF00000
07EFFFFC0000
07FFFFFE0000
07FFFFFF0000
07FFFFFF8000
03FFFFFFC000
03FFE1FFC000
03FF001FE000
03FC0007F000
03F80003F000
03F00001F800
03F00000F800
03F00000FC00
03F000007C00
01F000007C00
01F000003E00
01F000003E00
01F000003E00
01F000003E00
01F000001F00
01F000001F00
01F000001F00
01F800001F00
01F800001F00
01F800001F80
01F800001F80
01F800001F80
01F800001F80
01F800001F80
00F800001F80
00FC00001F80
00FC00001F80
00FC00001F80
00FC00003F80
00FC00003F80
00FC00003F80
00FC00003F80
00FC00003F80
00FC00003F80
00FC00003F00
00FC00003F00
007C00003F00
007C00003F00
007C00003E00
007800001C00
ENDCHAR
STARTCHAR i
ENCODING 105
SWIDTH 179 0
DWIDTH 18 0
BBX 15 62 1 0
BITMAP
7000
F800
FC00
FE00
FE00
7E00
0C00
0000
0000
0000
0000
0000
0000
0000
0000
0000
0000
0380
07C0
07C0
07C0
07C0
07C0
07C0
07C0
07C0
07C0
07C0
07E0
07E0
07E0
07E0
07E0
07E0
07F0
03F0
03F0
03F0
03F0
03F8
03F8
03F8
03F8
03F8
03FC
03FC
03FC
01FC
01FC
01FC
01FE
01FE
01FE
00FE
00FE
00FE
00FE
00FE
007E
007E
003C
0038
ENDCHAR
STARTCHAR j
ENCODING 106
SWIDTH 205 0
DWIDTH 21 0
BBX 34 106 -11 -46
BITMAP
0001E00000
0003F00000
0003F00000
0003F80000
0003F80000
0001F80000
0000F80000
0000200000
0000000000
0000000000
0000000000
0000000000
0000000000
0000000000
0000000000
0000000000
0000000000
0000000000
0000000000
00000E0000
00001E0000
00001F0000
00001F0000
00001F0000
00001F8000
00001F8000
00000F8000
00000FC000
00000FC000
00000FC000
00000FE000
00000FE000
00000FE000
00000FE000
000007F000
000007F000
000007F000
000007F000
000007F000
000003F800
000003F800
000003F800
000003F800
000003F800
000003FC00
000001FC00
000001FC00
000001FC00
000001FC00
000001FE00
000000FE00
000000FE00
000000FE00
000000FE00
000000FE00
0000007F00
0000007F00
0000007F00
0000007F00
0000007F00
0000007F00
0000003F00
0000003F00
0000003F80
0000003F80
0000003F80
0000003F80
0000001F80
0000001F80
0000001F80
0000001F80
C000001F80
E000001F80
F000001F80
F800001FC0
F800000FC0
FC00000FC0
FC00000FC0
FE00000FC0
7E00000FC0
7F00000FC0
7F00000FC0
7F00000FC0
3F80000FC0
3F80000FC0
1FC0000FC0
1FC0000FC0
0FE0000FC0
0FF0000FC0
07F0000FC0
07F8000FC0
03FC000FC0
01FC000FC0
00FE000F80
00FF000F80
007FC00F80
003FE01F80
001FFE7F80
000FFFFF80
0007FFFF00
0001FFFF00
0000FFFF00
00003FFE00
00001FFE00
000007FC00
000000F800
ENDCHAR
STARTCHAR k
ENCODING 107
SWIDTH 413 0
DWIDTH 41 0
BBX 41 63 0 0
BITMAP
400000000000
E00000000000
E00000000000
F00000000000
F00000000000
F00000000000
F80000000000
F80000000000
780000000000
7C0000000000
7C0000000000
7C0000000000
7C0000000000
7E0000000000
3E0000000000
3E0000000000
3E0000000000
3F00000F0000
3F00001F8000
1F00007F8000
1F0000FF0000
1F0000FE0000
1F8001FC0000
1F8003F80000
1F8007F00000
0F8007E00000
0F800FC00000
0FC00F800000
0FC01F000000
0FC03E000000
07C07C000000
07C0F8000000
07C1F0000000
07FFE0000000
07FFE0000000
07FFC0000000
07FF80000000
07FF00000000
03FF00000000
03FE00000000
03FE00000000
03FC00000000
03FC00000000
03FC00000000
03FC00000000
03FE00000000
03FE00000000
03FF00000000
03FF80000000
03FFE0000000
03FFF0000000
03FFFC000000
03FFFF000000
03F9FFE00000
03F07FFC0000
03F03FFFE000
07E00FFFFF00
07E007FFFF00
07E001FFFF80
07E0007FFF00
07E0003FFF00
07C00007FC00
03C000000000
ENDCHAR
STARTCHAR l
ENCODING 108
SWIDTH 123 0
DWIDTH 12 0
BBX 7 58 3 1
BITMAP
E0
F0
F8
F8
FC
FC
FC
FC
FC
FC
FC
FC
FC
FC
FC
FC
FC
FC
FC
FC
FC
FC
FC
FC
FC
FC
FC
FC
FC
FE
FE
FE
FE
FE
FE
FE
FE
FE
FE
FE
FE
FE
FE
FE
FE
FC
FC
FC
FC
FC
FC
FC
FC
7C
7C
78
78
78
ENDCHAR
STARTCHAR m
ENCODING 109
SWIDTH 768 0
DWIDTH 77 0
BBX 71 43 3 0
BITMAP
0000000000007F0000
000000000003FFC000
001FE000000FFFF000
E0FFF800001FFFF800
F1FFFE00007FFFFC00
FBFFFF8000FFFFFE00
FFFFFFE001FFFFFF00
FFFFFFF003FE007F80
FFFC07F80FF8003F80
FFF001F81FF0001FC0
FFE000FC3FC0000FE0
FFC0007E7F80000FE0
FF80007FFF000007F0
FF00003FFE000003F0
FF00001FFE000003F0
FF00001FFC000003F8
FE00000FF8000001F8
FE00000FF8000001F8
FE00000FF8000000FC
FE000007F0000000FC
7E000007F0000000FC
7E000007F0000000FC
7E000003F00000007E
7E000003F80000007E
7E000003F80000007E
7E000001F80000007E
7E000001FC0000007E
7E000001FC0000007E
7E000001FC0000007E
7E000000FE0000007E
7E000000FE0000007E
7E000000FE0000007E
7E0000007E0000007E
7E0000007E0000007E
7F0000003E000000FE
7F0000003E000000FE
7F0000001C000000FC
3F00000000000000FC
3F00000000000000FC
1E00000000000000FC
0E00000000000000F8
0000000000000000F8
000000000000000070
ENDCHAR
STARTCHAR n
ENCODING 110
SWIDTH 471 0
DWIDTH 47 0
BBX 42 45 3 0
BITMAP
00001FC00000
0000FFF00000
0003FFFC0000
000FFFFE0000
E03FFFFF0000
E0FFFFFF8000
E3FE00FFC000
FFF8003FC000
FFE0001FE000
FFC0000FF000
FFC00007F000
FF800003F800
FF000003F800
FF000001FC00
FE000001FC00
FE000000FC00
FE000000FE00
FE0000007E00
FE0000007F00
FE0000007F00
FE0000003F00
FE0000003F00
FE0000003F80
FE0000001F80
7E0000001F80
7E0000001F80
7E0000001FC0
7F0000001FC0
7F0000001FC0
7F0000000FC0
7F0000000FC0
3F8000000FC0
3F8000000FC0
3F8000000FC0
3F8000000FC0
3F8000000FC0
1FC000000FC0
1FC000000FC0
0FC000000FC0
0FC000000FC0
0FC000000F80
07C000000F80
03E000000F80
01E000000F00
006000000000
ENDCHAR
STARTCHAR o
ENCODING 111
SWIDTH 499 0
DWIDTH 50 0
BBX 45 42 2 0
BITMAP
000007FE0000
00007FFF8000
0003FFFFE000
000FFFFFF000
003FFFFFF800
007FFFFFFC00
01FFE03FFE00
03FF0007FF00
07FC0001FF80
0FF000007F80
1FC000003FC0
1F8000001FE0
3F0000000FE0
3E00000007E0
7E00000003F0
7C00000003F0
7C00000001F0
F800000001F8
F800000001F8
F800000001F8
F800000001F8
F800000001F8
F800000001F8
F800000001F8
F800000003F8
F800000003F0
FC00000007F0
7C0000000FF0
7E0000001FF0
7E0000003FE0
3F0000007FE0
3F800000FFC0
1FC00001FF80
1FE00007FF80
0FF8001FFF00
07FE007FFE00
03FFFFFFF800
01FFFFFFF000
007FFFFFE000
003FFFFF8000
000FFFFC0000
0000FFC00000
ENDCHAR
STARTCHAR p
ENCODING 112
SWIDTH 533 0
DWIDTH 53 0
BBX 49 72 2 -36
BITMAP
000007FC000000
0000FFFFE00000
0007FFFFF80000
001FFFFFFE0000
007FFFFFFF8000
01FFFFFFFFC000
03FFFE01FFE000
07FFE0003FF000
0FFE00000FF800
0FF8000003FC00
1FE0000001FE00
3FC0000000FE00
3F800000007F00
7F800000003F00
7F800000003F00
7F800000001F80
FF800000001F80
FF800000001F80
FF800000001F80
FF800000001F80
FF800000001F80
FF800000001F80
FF8F0000003F80
FF8FC000007F80
FF87F00000FF80
FF87FE0003FF00
FFC7FF803FFF00
FFC3FFFFFFFE00
FFC1FFFFFFFC00
7FC0FFFFFFF800
7FC07FFFFFE000
7FC01FFFFF8000
7FC001FFF80000
7FE00000000000
3FE00000000000
3FE00000000000
3FE00000000000
3FE00000000000
3FE00000000000
1FE00000000000
1FF00000000000
1FF00000000000
1FF00000000000
1FF00000000000
0FF00000000000
0FF00000000000
0FF00000000000
0FF80000000000
07F80000000000
07F80000000000
07F80000000000
07F80000000000
03F80000000000
03FC0000000000
03FC0000000000
03FC0000000000
01FC0000000000
01FC0000000000
01FC0000000000
00FE0000000000
00FE0000000000
00FE0000000000
00FE0000000000
007E0000000000
007E0000000000
003F0000000000
003F0000000000
003F0000000000
001F0000000000
001F0000000000
000F0000000000
00060000000000
ENDCHAR
STARTCHAR q
ENCODING 113
SWIDTH 422 0
DWIDTH 42 0
BBX 36 84 2 -33
BITMAP
00003FC000
0001FFF800
0007FFFE00
001FFFFF80
003FFFFFC0
007FC07FE0
00FE001FE0
01FC000FF0
03F80007F0
07F00003F0
0FE00003F0
0FC00001F0
1F800003F0
1F800003F0
3F000003F0
3F000003F0
3E000007F0
7E000007F0
7C000007F0
7C000007F0
7C000007F0
F800000FE0
F800000FE0
F800000FE0
F800000FE0
F800000FE0
F800000FE0
F800000FE0
F800000FE0
F800000FE0
F800000FE0
F800000FE0
F800001FC0
7C00001FC0
7C00001FC0
7E00001FC0
7E00001FC0
3F00001FC0
3F80001FC0
1FC0001FC0
1FE0001FC0
0FF8007FC0
0FFFFFFFC0
07FFFFFFC0
03FFFFFF80
01FFFFFF80
007FFFFF80
001FFFFF80
0003FC3F80
0000001F80
0000001FC0
0000000FC0
0000000FC0
0000000FC0
0000000FC0
0000000FC0
0000000FC0
0000000FC0
0000000FC0
0000000FC0
00000007C0
00000007C0
00000007C0
00000007E0
00000007E0
00000007E0
00000007E0
00000007E0
00000007E0
00000007E0
00000007E0
00000007E0
00000007E0
00000007E0
00000007E0
00000007E0
00000007F0
00000007F0
00000003F0
00000003F0
00000003F0
00000001F0
00000001E0
0000000060
ENDCHAR
STARTCHAR r
ENCODING 114
SWIDTH 355 0
DWIDTH 36 0
BBX 33 46 2 0
BITMAP
0001FF0000
000FFFE000
007FFFFC00
01FFFFFE00
67FFFFFF00
FFFFFFFF00
FFE003FF00
FF80007F80
FF00000380
FE00000000
FE00000000
FC00000000
FC00000000
FC00000000
FC00000000
FC00000000
FC00000000
7C00000000
7C00000000
7C00000000
7E00000000
7E00000000
7E00000000
3E00000000
3F00000000
3F00000000
3F00000000
3F80000000
1F80000000
1F80000000
1FC0000000
1FC0000000
0FC0000000
0FE0000000
0FE0000000
07E0000000
07E0000000
07F0000000
03F0000000
03F0000000
03F0000000
01F0000000
01F8000000
00F0000000
00F0000000
0060000000
ENDCHAR
STARTCHAR s
ENCODING 115
SWIDTH 527 0
DWIDTH 53 0
BBX 48 47 2 0
BITMAP
0003FF000000
003FFFE00000
00FFFFF80000
03FFFFFC0000
07FFFFFE0000
0FFF83FF0000
1FF0003F8000
3FC0000F8000
3F800007C000
3F000007C000
3E000007C000
3E000007C000
3E000007C000
3E00000F8000
3F0000078000
1F0000070000
1F8000000000
0FE000000000
0FF000000000
07FF00000000
03FFFE000000
00FFFFFF0000
003FFFFFF800
000FFFFFFF00
00007FFFFFC0
0000007FFFF0
00000000FFF8
000000000FFC
0000000003FC
0000000001FE
0000000000FE
00000000007E
00000000007F
00000000007F
F8000000007F
FC000000007F
FE000000007F
7F80000000FE
3FE0000001FE
3FF8000003FE
1FFF00000FFC
0FFFFFFFFFF8
03FFFFFFFFF0
01FFFFFFFFE0
003FFFFFFFC0
0007FFFFFE00
00001FFFF000
ENDCHAR
STARTCHAR t
ENCODING 116
SWIDTH 336 0
DWIDTH 34 0
BBX 32 64 1 0
BITMAP
000F0000
000F8000
000FC000
000FC000
000FC000
000FC000
000FC000
000FC000
000FC000
000FC000
000FC000
000FC000
000FC000
000FC000
000FC000
000FE000
000FE000
000FE000
000FE000
000FE000
000FE000
000FE000
001FE000
FFFFFFF8
FFFFFFFE
FFFFFFFF
7FFFFFFF
3FFFFFFF
01FFFFFC
000FE000
000FE000
000FE000
000FE000
000FE000
000FE000
000FE000
000FE000
000FE000
000FE000
000FE000
000FE000
000FE000
000FE000
000FE000
000FE000
000FE000
000FE000
000FE000
000FE000
0007E000
0007E000
0007F000
0007F000
0007F000
0007F000
0007F000
0007F000
0003F000
0003F000
0003F000
0001F000
0001F000
0000F000
00006000
ENDCHAR
STARTCHAR u
ENCODING 117
SWIDTH 514 0
DWIDTH 51 0
BBX 49 47 1 1
BITMAP
1C000000000000
3E000000000000
3E000000000000
7E000000000000
7E000000000000
7C000000070000
FC0000000F0000
FC0000001F8000
FC0000001F8000
FC0000001F8000
FC0000001FC000
7C0000001FC000
7C0000001FC000
7C0000001FC000
7C0000001FC000
7C0000001FC000
7C0000001FC000
7C0000001FC000
7E0000001FE000
7E0000001FE000
3E0000001FE000
3E0000001FE000
3F0000001FE000
3F0000001FE000
3F0000001FE000
1F8000001FE000
1F8000003FE000
1FC000003FE000
0FC000007FE000
0FE000007FE000
07E00000FFF000
07F00001FFF000
03F00003FFF000
03F80007FBF800
01FC000FF1F800
01FE001FC0FC00
00FF003F80FC00
007FC0FF807C00
003FFFFF007E00
001FFFFE007E00
000FFFFC003E00
0007FFF0003F00
0001FFE0003F00
00007F80003F00
00000000003F80
00000000001F80
00000000001F80
ENDCHAR
STARTCHAR v
ENCODING 118
SWIDTH 399 0
DWIDTH 40 0
BBX 37 39 1 0
BITMAP
7000000000
7800000000
FC00000000
FE00000000
7F00000078
7F000001F8
3F800003F8
3F800003F0
1FC00007F0
1FC00007E0
0FC0000FC0
0FE0000FC0
07E0001F80
07F0001F80
07F0003F80
03F0003F00
03F8007F00
01F8007E00
01F8007E00
00FC00FE00
00FC00FC00
007E00FC00
007E01FC00
003F01F800
003F01F800
001F83F800
001FC3F000
000FE3F000
000FF7E000
0007FFE000
0003FFE000
0003FFC000
0001FFC000
0001FF8000
0000FF8000
00007F0000
00003E0000
00003E0000
0000080000
ENDCHAR
STARTCHAR w
ENCODING 119
SWIDTH 672 0
DWIDTH 67 0
BBX 63 43 1 0
BITMAP
0600000000000000
0F00000000000000
0F00000000000000
1F00000000000000
1F00000000000000
3F00000000000000
3F00000000000000
7E00000000000F00
7E00000000000F80
7E000000000007C0
7E000000000007C0
FC000001E00003E0
FC000001F00003F0
FC000001F00001F0
FC000001F00001F8
FC000001F00000F8
FC000003F00000FC
FC000003F00000FC
FC000003F000007C
FC000003F800007E
FC000003F800007E
FC000003F800007E
7C000003F800007E
7E000003F800007E
7E000003F800007E
7E000003F800007E
3E000003FC00007E
3F000003FC00007E
3F000007FC00007E
1F80000FFE00007E
1F80001FFE0000FE
0FC0003FFF0001FE
0FE0007FFF8001FE
07E000FFBFC007FC
03F003FF1FF01FFC
03FC0FFF0FFFFFF8
01FFFFFE07FFFFF8
00FFFFFC03FFFFF0
007FFFF801FFFFE0
003FFFE000FFFFC0
000FFFC0003FFF00
0003FF0000000000
0000300000000000
ENDCHAR
STARTCHAR x
ENCODING 120
SWIDTH 459 0
DWIDTH 46 0
BBX 45 44 0 -5
BITMAP
E000000000F8
F800000003F8
FE00000007F8
7F0000001FF0
7F8000003FE0
3FC000007FC0
1FE00000FF80
1FF00001FE00
0FF80007FC00
07FC000FF800
03FE001FE000
01FF003FC000
00FF80FF0000
007FC1FE0000
003FEFFC0000
001FFFF00000
000FFFE00000
0007FFC00000
0003FF800000
0001FF000000
0001FF800000
0001FFC00000
0001FFE00000
0003FFF00000
0007FFF80000
000FCFFC0000
001F07FE0000
001E01FF0000
003C00FF8000
007C007FC000
00F8003FE000
00F8001FF000
01F0000FF800
01E00007FC00
03E00003FE00
03C00001FE00
03C00000FF00
03800000FF80
038000007FC0
010000003FC0
000000001FE0
000000000FE0
0000000007E0
0000000003C0
ENDCHAR
STARTCHAR y
ENCODING 121
SWIDTH 499 0
DWIDTH 50 0
BBX 46 95 2 -50
BITMAP
000000000300
600000000300
700000000380
F00000000380
F00000000380
F000000003C0
F000000003C0
F000000007C0
F000000007C0
F800000003C0
F800000003E0
F800000003E0
F800000003E0
F800000003E0
F800000003E0
FC00000003F0
FC00000003F0
7C00000003F0
7C00000003F0
7E00000003F0
7E00000003F0
7E00000003F0
3E00000003F8
3F00000003F8
3F00000003F8
1F80000003F8
1F80000003F8
0F80000003F8
0FC0000007F8
07C000000FF8
07E000000FF8
03F000001FF8
03F800003FFC
01FC0000FFFC
00FE0001FFFC
007F0007FFFC
003FC01FFFFC
001FFFFFE0FC
000FFFFFC07C
0007FFFF007C
0003FFFC007C
0000FFF0007C
00001FC0003C
00000000003C
00000000003C
00000000003C
00000000003C
00000000003C
00000000003C
00000000003C
00000000007C
00000000007C
00000000007C
00000000007C
00000000007C
00000000007C
00000000007C
00000000007C
00000000007C
00000000007C
00000000007C
0000000000FC
0000000000FC
0000000000FC
0000000000F8
0000000000F8
0000000000F8
0000000000F8
0000000000F8
0000000001F8
0000000001F8
0000000001F8
0000000001F0
1800000001F0
1C00000001F0
1E00000003F0
1F00000003F0
1F80000003E0
1FC0000003E0
1FE0000007E0
0FF0000007C0
0FF800000FC0
07FC00000FC0
03FE00001F80
01FF80001F80
00FFC0003F00
007FF0007F00
003FFC01FE00
001FFFCFFE00
0007FFFFFC00
0001FFFFF800
0000FFFFF000
00001FFFE000
000007FFC000
000000FE0000
ENDCHAR
STARTCHAR z
ENCODING 122
SWIDTH 471 0
DWIDTH 47 0
BBX 42 53 2 0
BITMAP
0003FF000000
00FFFFC00000
0FFFFFF00000
3FFFFFF80000
7FFFFFFC0000
FFFFFFFE0000
FF80007E0000
FF00003F0000
FE00003F0000
FC00003F0000
3800001F0000
0000001F8000
0000001F8000
0000001F8000
0000001F0000
0000001F0000
0000003F0000
0000003F0000
0000003E0000
0000007E0000
0000007E0000
000000FC0000
000001FC0000
000003FC0000
00001FFFF000
003FFFFFF800
1FFFFFFFF800
3FFFFFFFF000
3FFFFFFFC000
3FFFFF800000
3FFFFF000000
0000FE000000
0001FC000000
0003FC000000
0007F8000000
000FF0000000
000FE0000000
001FC0000000
003F80000000
007F80000000
007F00000000
00FF00000000
00FE00000380
01FE00001FC0
01FF0000FFC0
01FF800FFFC0
01FFFFFFFFC0
01FFFFFFFF80
01FFFFFFFE00
00FFFFFFF800
007FFFFFC000
001FFFFE0000
0001FF800000
ENDCHAR
ENDFONT
